<?xml version="1.0" encoding="UTF-8" standalone="no"?>
<!-- Created with Inkscape (http://www.inkscape.org/) -->

<svg
   width="38.000000pt"
   height="38.000000pt"
   viewBox="0 0 264.58332 264.58334"
   version="1.1"
   id="svg5"
   xmlns="http://www.w3.org/2000/svg"
   xmlns:svg="http://www.w3.org/2000/svg"
   xmlns:rdf="http://www.w3.org/1999/02/22-rdf-syntax-ns#"
   xmlns:cc="http://creativecommons.org/ns#"
   xmlns:dc="http://purl.org/dc/elements/1.1/">
  <defs
     id="defs2" />
  <metadata
     id="metadata856">
    <rdf:RDF>
      <cc:Work
         rdf:about="">
        <dc:creator>
          <cc:Agent>
            <dc:title>Inspire Studio</dc:title>
          </cc:Agent>
        </dc:creator>
        <cc:license
           rdf:resource="http://creativecommons.org/publicdomain/zero/1.0/" />
        <dc:description>Thank you for using this artwork. Feel free to visit our page https://www.pinterest.com.au/inspirestudiobox for more designs. We wish you have a wonderful day, everyday. Amitabha</dc:description>
      </cc:Work>
      <cc:License
         rdf:about="http://creativecommons.org/publicdomain/zero/1.0/">
        <cc:permits
           rdf:resource="http://creativecommons.org/ns#Reproduction" />
        <cc:permits
           rdf:resource="http://creativecommons.org/ns#Distribution" />
        <cc:permits
           rdf:resource="http://creativecommons.org/ns#DerivativeWorks" />
      </cc:License>
    </rdf:RDF>
  </metadata>
  <rect
     style="fill:#f7f7f7;fill-opacity:1;stroke:none;stroke-width:10.5833;stroke-linecap:square;stroke-miterlimit:4;stroke-dasharray:none;stroke-opacity:1;paint-order:stroke markers fill"
     id="rect35197"
     width="264.58334"
     height="264.58334"
     x="-1.350586e-05"
     y="0" />
  <g
     id="g1009"
     transform="translate(-1.2130983,-5.2916666)">
    <path
       id="rect924"
       style="fill:none;stroke:#4d4d4d;stroke-width:7.9375;stroke-linecap:butt;stroke-linejoin:round;stroke-opacity:1;paint-order:fill markers stroke"
       d="m 159.43511,92.462511 h 18.79011 c 0.76232,0 1.37602,0.613044 1.37602,1.374537 V 197.47711 c 0,0.76149 -0.6137,1.37453 -1.37602,1.37453 H 88.784287 c -0.762312,0 -1.376014,-0.61304 -1.376014,-1.37453 V 93.837048 c 0,-0.761493 0.613702,-1.374537 1.376014,-1.374537 v 0 h 18.789583" />
    <path
       id="path15760"
       style="fill:none;stroke:#0573e1;stroke-width:6.61458;stroke-linecap:round;stroke-linejoin:round;stroke-miterlimit:4;stroke-dasharray:none;stroke-opacity:1;paint-order:fill markers stroke"
       d="m 133.50475,71.19018 c -5.58662,0 -9.52273,3.889642 -10.08416,8.684717 l -0.5504,4.700982 h -13.85553 c -0.79809,0 -1.44059,0.642633 -1.44059,1.440881 v 12.759419 c 0,0.798247 0.6425,1.440881 1.44059,1.440881 h 48.98018 c 0.7981,0 1.4406,-0.642634 1.4406,-1.440881 V 86.01676 c 0,-0.798248 -0.6425,-1.440881 -1.4406,-1.440881 h -13.85552 l -0.55041,-4.700982 c -0.55952,-4.778824 -4.49754,-8.684717 -10.08416,-8.684717 z" />
    <path
       style="fill:#4d4d4d;fill-opacity:1;stroke:#4d4d4d;stroke-width:6.61458;stroke-linecap:butt;stroke-linejoin:miter;stroke-miterlimit:4;stroke-dasharray:none;stroke-opacity:1"
       d="M 126.07397,126.49873 H 167.3544"
       id="path15764" />
    <path
       style="fill:none;stroke:#0573e1;stroke-width:5.29167;stroke-linecap:butt;stroke-linejoin:miter;stroke-miterlimit:4;stroke-dasharray:none;stroke-opacity:1"
       d="m 101.56658,126.41756 5.97827,5.76547 13.62486,-13.13991"
       id="path15766" />
    <path
       style="fill:#4d4d4d;fill-opacity:1;stroke:#4d4d4d;stroke-width:6.61458;stroke-linecap:butt;stroke-linejoin:miter;stroke-miterlimit:4;stroke-dasharray:none;stroke-opacity:1"
       d="M 126.07397,148.95593 H 167.3544"
       id="path15770" />
    <path
       style="fill:none;stroke:#0573e1;stroke-width:5.29167;stroke-linecap:butt;stroke-linejoin:miter;stroke-miterlimit:4;stroke-dasharray:none;stroke-opacity:1"
       d="m 101.56658,148.87475 5.97827,5.76548 13.62486,-13.13992"
       id="path15772" />
    <path
       style="fill:#4d4d4d;fill-opacity:1;stroke:#4d4d4d;stroke-width:6.61458;stroke-linecap:butt;stroke-linejoin:miter;stroke-miterlimit:4;stroke-dasharray:none;stroke-opacity:1"
       d="M 126.07397,171.41317 H 167.3544"
       id="path15776" />
    <path
       style="fill:none;stroke:#0573e1;stroke-width:5.29167;stroke-linecap:butt;stroke-linejoin:miter;stroke-miterlimit:4;stroke-dasharray:none;stroke-opacity:1"
       d="m 101.56658,171.33199 5.97827,5.76548 13.62486,-13.13992"
       id="path15778" />
  </g>
</svg>
